<?xml version="1.0" encoding="UTF-8"?>
<svg id="Layer_1" xmlns="http://www.w3.org/2000/svg" version="1.1" viewBox="0 0 120.84 169.58">
  <!-- Generator: Adobe Illustrator 29.5.1, SVG Export Plug-In . SVG Version: 2.1.0 Build 141)  -->
  <defs>
    <style>
      .st0 {
        fill: #e5f1f8;
      }

      .st1 {
        fill: #18254e;
      }

      .st2 {
        fill: #aecadb;
      }

      .st3 {
        fill: #ed1c24;
      }

      .st4 {
        fill: #1c1713;
      }

      .st5 {
        fill: #eeeeef;
      }
    </style>
  </defs>
  <g id="Generative_Object">
    <path class="st0" d="M72.13,83.13c-3.85,10.14-7.26,22.65-9.66,33.26-.21.94-.37,1.85-.56,2.79-.27,1.34-.53,2.54-.74,3.9l-.56,1.67c-.39-.88-.23-1.99-.93-2.97-.04-.06.11-.39-.19-.37.1-.44.18-.57.19-1.11,0-.38-.14-.86-.19-1.3-1.18-10.83-3.77-17.85-2.79-29.45.96-11.4,5.52-17.07-4.37-25.92-13.87-10.56-29.94-17.79-44.68-27.03,5.91,2.17,11.08,5.99,16.63,8.83,8.32,4.25,32.62,15.21,41.25,13.19,5.08-1.19,5.5-9.94,7.06-13.93.46.05.14,1.34.09,1.58-.72,3.69-5.87,12.71,1.39,13.47,8.84.93,21.81-10.75,29.17-15.05-6.8,6.55-14.39,12.38-20.35,19.79-4.5,5.6-8.22,11.95-10.78,18.67Z"/>
    <path class="st2" d="M50.95.27c-3.46,1.14-7.23.32-6.87,5.11.56,7.4,7.44,20.85,12.26,26.57,20.21,23.99,47.66,7.43,63.54-11.71-4.04-4.54-9.86-7.24-15.05-10.31l-.19-.19s-.22.03-.19-.19c2.16.99,15.89,8.55,16.35,9.94.53,1.58-6.74,8.76-8.18,10.13-.16-.02-.17.05-.19.19-3.67,3.46-7.7,6.49-11.89,9.29-.06,0-.13,0-.19,0l-.19.19c-1.95.66-4.6,2.65-6.78,3.53-5.64,2.28-11.01,3.09-17.09,2.6-.58-.05-2.54-.86-2.88-.28-.61,3.41-5.9,12.27-.28,13.84,5.41,1.51,15.58-5.33,19.97-8.36.18-.13.18-.18.19-.19.03-.02.22.03.19-.19,7.83-4.39,15.2-10.19,22.76-15.05.37-.24.74-.86,1.11-1.11.26-.18.32.4.37.37.09-.06.42-1.74.46-2.04.99,3.67-3.75,4.4-5.85,5.76-5.41,3.49-14.43,12.21-19.32,16.91-8.56,8.22-16.01,17.13-20.9,28.06,2.55-6.72,6.27-13.07,10.78-18.67,5.95-7.4,13.54-13.24,20.35-19.79-7.36,4.3-20.33,15.98-29.17,15.05-7.27-.76-2.12-9.78-1.39-13.47.05-.24.37-1.53-.09-1.58-1.56,4-1.98,12.74-7.06,13.93-8.63,2.02-32.92-8.94-41.25-13.19-5.55-2.83-10.72-6.66-16.63-8.83,14.74,9.25,30.81,16.47,44.68,27.03,9.89,8.85,5.33,14.52,4.37,25.92-.98,11.6,1.61,18.62,2.79,29.45-.71.41-.06-1-1.02-.93-.19.01-2.82,1.77-3.16,2.04-4.87,3.86-8,12.49-9.94,18.3-2.69,8.05-4.27,16.37-5.76,24.71l20.07-42.83c0,.54-.09.68-.19,1.11,0,.02-.09.03-.19.37-1.19,4.04-4.48,10.31-6.32,14.4-4.9,10.9-10.84,21.37-14.31,32.89-.8.81-.66.59-.93-.09l3.16-17.65c.07-.2.13-.33.19-.56.01-.05,0-.13,0-.19.26,0,.17-.19.19-.37s-.02-.38,0-.56c.15.02.18-.04.19-.19.02-.36-.19-.44-.19-.46.6-3.21,2.58-9.05,3.72-12.26,2.62-7.42,6.16-15.88,13.75-19.32-1.58-8.95-3.39-17.6-2.79-26.76.49-7.43,4.01-16.31-.74-22.67-5.84-7.8-37.23-24.86-47.29-30.38-1.75-.96-6.03-2.46-7.25-3.34-1.15-.83-.81-1.34.56-1.3,4.96.15,22.53,11.19,28.24,13.93,7.31,3.5,27.42,11.9,34.93,10.96,5.41-.67,5.89-9.31,7.15-13.47-12.07-3.83-20.31-14.95-24.71-26.38-1.08-2.8-4.35-12.98-3.34-15.42.78-1.87,5.74-2.17,7.43-2.32Z"/>
    <path class="st5" d="M105.2,145c-.04-.17.02-.38,0-.56,3.59,4.52,8.08,8.43,11.52,13.1l-.46.09-42.92-13.93,16.63-5.02c2.65,2.09,18.58,15.65,19.97,15.98.39.09.88.2,1.02-.28.66-2.14-5.37-7.6-5.76-9.38Z"/>
    <path class="st5" d="M118.21,32.41c-.05.31-.38,1.99-.46,2.04-.05.03-.11-.55-.37-.37-.38.26-.74.88-1.11,1.11-7.56,4.86-14.93,10.66-22.76,15.05,1.2-1.78,7-4.06,7.8-5.67.16-.32.14-5.16,0-5.39-.19-.18-.5-.07-.74-.09,4.19-2.8,8.22-5.83,11.89-9.29-.04.35-.06.7.28.93,1.74-.05,4.92-.4,5.48,1.67Z"/>
    <path class="st5" d="M37.76,168.97c-.84-2.18,2.2-14.84,3.16-17.65l-3.16,17.65Z"/>
    <path class="st5" d="M62.66,116.58c-.12.49-.14.82-.19,1.3-.04.38-.38.82-.37.93.02.19.2.21.19.37h-.37c.19-.94.35-1.85.56-2.79.13-.02.22.06.19.19Z"/>
    <path class="st5" d="M60.61,124.75l.56-1.67c-.1.64-.22,1.29-.19,1.95-.45.3-.3-.13-.37-.28Z"/>
    <path class="st5" d="M59.68,121.78h-.37c.1-.34.18-.35.19-.37.29-.02.14.31.19.37Z"/>
    <path class="st5" d="M112.45,29.81c.02-.14.02-.21.19-.19-.06.06-.12.12-.19.19Z"/>
    <path class="st5" d="M41.1,150.58c0-.18-.07-.38.19-.37-.01.18.07.38-.19.37Z"/>
    <path class="st5" d="M100.19,39.28l.19-.19s.07.1-.19.19Z"/>
    <path class="st5" d="M40.92,151.32l.19-.56c-.06.23-.12.36-.19.56Z"/>
    <path class="st5" d="M93.31,50.43s-.03-.06.19-.19c.03.21-.15.16-.19.19Z"/>
    <path class="st5" d="M93.13,50.62c-.03-.21.17-.17.19-.19-.01,0,0,.06-.19.19Z"/>
    <path class="st5" d="M41.29,149.65c.01-.14.03-.21.19-.19,0,.14-.03.2-.19.19Z"/>
    <path class="st0" d="M59.5,118.99c.05.44.19.92.19,1.3l-20.07,42.83c1.49-8.35,3.07-16.66,5.76-24.71,1.94-5.82,5.07-14.44,9.94-18.3.34-.27,2.97-2.03,3.16-2.04.97-.07.31,1.34,1.02.93Z"/>
    <g>
      <path class="st2" d="M81.98,118.43c-.03.21.17.17.19.19.01.01-.05.07.19.19.04.02.12-.02.19,0-.03.21.14.16.19.19.11.07.25.13.37.19-.01.29.27.14.37.19.01,0-.07.08.19.19.23.17.35.17.37.19,8.97,6.58,14.53,16.6,21.18,25.27.39,1.78,6.42,7.24,5.76,9.38-.15.48-.63.37-1.02.28-1.4-.33-17.32-13.89-19.97-15.98-8.87-6.99-17.67-14.14-27.68-19.51.01-.16-.17-.19-.19-.37,14.19,7.06,27.04,17.32,39.3,27.31,2.4,1.95,5.27,5.03,7.62,6.69.24.17.79.72,1.02.28-5.87-7.2-10.63-15.33-16.54-22.48-8.24-9.97-17.17-17.5-31.03-12.73.05-.49.07-.81.19-1.3,3.02-.91,6.23-1.3,9.38-1.11,3.56.2,6.76,1.48,9.94,2.97Z"/>
      <path class="st0" d="M105.2,144.45c.02.18-.04.39,0,.56-6.65-8.67-12.21-18.69-21.18-25.27,8.86,4.37,15.2,17.18,21.18,24.71Z"/>
      <path class="st0" d="M82.72,118.99s-.22.03-.19-.19c.11.03.21,0,.19.19Z"/>
      <path class="st0" d="M84.02,119.73s-.14-.02-.37-.19c.21.09.26.13.37.19Z"/>
      <path class="st0" d="M82.16,118.62s-.22.03-.19-.19c.24.11.18.18.19.19Z"/>
      <path class="st0" d="M82.35,118.81c-.23-.12-.17-.17-.19-.19.03.02.22-.03.19.19Z"/>
      <path class="st0" d="M83.65,119.55c-.25-.1-.17-.18-.19-.19.18.13.18.18.19.19Z"/>
      <path class="st0" d="M83.47,119.36c-.1-.05-.38.11-.37-.19.15.07.15.03.37.19Z"/>
      <path class="st0" d="M62.1,118.81c-.01-.11.33-.55.37-.93,13.86-4.77,22.79,2.76,31.03,12.73,5.91,7.15,10.67,15.28,16.54,22.48-.23.44-.78-.11-1.02-.28-2.35-1.66-5.22-4.73-7.62-6.69-12.26-9.99-25.11-20.25-39.3-27.31Z"/>
    </g>
    <g>
      <path class="st0" d="M61.91.08c.5.02,1.12.17,1.67.19s1.12-.01,1.67,0c.82.37,1.9.14,2.79.19.04,0,.33.16.74.19.49.03,1-.02,1.49,0,.24.36.92.14,1.3.19.04,0,.37.16.74.19.24.02.5-.03.74,0l1.3.19c.48.06,1.02.1,1.49.19.24.04.7.34,1.11.19.43.09.86.14,1.3.19.05.32.5.17.74.19,7.4.61,18.64,4.5,25.45,7.62-.03.21.17.17.19.19.02.02-.02.06.19.19,5.19,3.07,11.01,5.77,15.05,10.31-15.89,19.13-43.34,35.69-63.54,11.71-4.82-5.72-11.71-19.17-12.26-26.57-.36-4.79,3.42-3.97,6.87-5.11,3.65-.33,7.29-.3,10.96-.19Z"/>
      <g>
        <path class="st2" d="M68.04.45c-.89-.05-1.97.19-2.79-.19.99.03,1.8.03,2.79.19Z"/>
        <path class="st2" d="M63.58.27c-.55-.02-1.17-.17-1.67-.19l1.67.19Z"/>
        <path class="st2" d="M74.36,1.19l-1.3-.19c.45.05.87.13,1.3.19Z"/>
        <path class="st2" d="M71.57.82c-.38-.04-1.06.17-1.3-.19.5.02.83.11,1.3.19Z"/>
        <path class="st2" d="M76.96,1.57c-.42.16-.87-.14-1.11-.19.44-.15.83.12,1.11.19Z"/>
        <path class="st2" d="M79.01,1.94c-.24-.02-.69.13-.74-.19.24.03.69-.14.74.19Z"/>
        <path class="st2" d="M72.32,1.01c-.38-.03-.71-.18-.74-.19.24.04.69-.14.74.19Z"/>
        <path class="st2" d="M68.79.64c-.41-.02-.7-.18-.74-.19.24.04.69-.14.74.19Z"/>
        <path class="st4" d="M62.01,21.63c1.2,5.55,4.31,10.73,10.22,12.08,6.31,1.44,10.91-.59,14.31-5.95,1.18-.1-2.12,4.72-2.51,5.11-7.67,7.51-24.21.12-22.02-11.24Z"/>
        <path class="st3" d="M94.52,24.98c4.98-.9,5.58,6.2,1.67,6.87-4.97.86-5.64-6.16-1.67-6.87Z"/>
        <path class="st3" d="M56.06,18.85c4.72-.66,5.26,6.18,1.49,6.87-5.03.93-5.73-6.28-1.49-6.87Z"/>
        <path class="st1" d="M90.43,10.67c2.85-.52,6.63,2.83,6.04,5.67-.66,3.14-4.25-1.91-5.11-2.69-.45-.41-4.38-2.34-.93-2.97Z"/>
        <g>
          <path class="st1" d="M52.53,6.77c1.46-.17,5.32,1.55,5.48,3.07.14,1.33-2.88,3.46-3.99,3.62-4.37.64-5.1-6.27-1.49-6.69Z"/>
          <path class="st5" d="M52.16,7.14c2.15-.34,2.16,3.63-.37,2.97-1.41-.36-.89-2.78.37-2.97Z"/>
        </g>
      </g>
    </g>
  </g>
</svg>