<svg width="200" height="248" viewBox="0 0 200 248" fill="none" xmlns="http://www.w3.org/2000/svg">
<g clip-path="url(#clip0_35_85)">
<path d="M199.973 146.514C199.973 147.848 199.973 149.19 199.973 150.524V240C200.026 240.516 199.697 240.417 199.69 240.442C198.025 239.042 196.591 236.972 195.149 235.098L194.583 144.509C196.327 143.551 194.82 148.446 195.715 149.403L195.149 7.18136C196.314 5.34814 197.44 3.31032 198.552 1.39526C199.065 2.06635 199.374 2.36916 199.684 3.40035C200.006 51.0967 200.019 98.8095 199.966 146.514H199.973Z" fill="#AF7F62"/>
<path d="M199.973 150.524C199.934 180.339 199.999 210.177 199.973 240V150.524Z" fill="#936042"/>
<path d="M0.881319 6.29738C0.98661 6.72295 1.263 7.28765 1.44726 7.63138C0.835255 13.4257 1.2959 19.3754 1.16429 25.2106C1.0919 28.296 0.473317 34.1721 0.59835 39.0089C0.611512 39.3935 1.44068 43.6492 1.44726 43.9029C1.467 44.8441 0.196929 44.5413 1.44726 46.129C0.683899 66.9736 1.51965 87.6219 1.44726 108.45C2.5923 108.794 1.76971 104.489 2.0132 103.556L2.57913 104.448L2.0132 149.853H3.14507C2.83578 164.977 2.71733 180.134 2.8621 195.258C2.8621 195.594 3.42804 195.364 3.42804 195.7C3.53991 206.462 3.60572 217.052 3.14507 227.748L2.0132 213.279C2.0132 213.132 2.68443 210.93 2.57913 210.382C2.48701 209.899 1.82236 210.537 1.73023 209.711V194.129C1.73023 193.834 1.73023 193.531 1.73023 193.237C2.59888 193.433 2.33565 191.051 2.29617 190.339C-0.118944 142.373 0.433833 88.4566 0.0324118 39.9009C-0.0662984 28.6315 0.0982186 17.3458 0.0324118 6.07642L0.881319 6.29738Z" fill="#DAC5B7"/>
<path d="M197.992 0.953242C195.998 2.5082 195.584 4.81609 194.307 6.9603C188.983 15.8972 182.159 26.1027 176.158 33.8939C165.78 33.5338 155.343 34.2376 144.959 34.3358C119.886 34.5813 94.8271 34.966 69.8008 35.6698L68.5242 32.5517C66.1288 33.0182 49.5586 35.6289 48.6702 34.7777C47.7819 33.9266 50.4997 32.3962 46.1169 32.5517C39.2401 32.789 29.9745 33.6565 23.1438 34.7777C23.0253 34.7941 21.7026 35.3506 21.5842 35.6698C14.4112 26.4301 7.69893 15.7336 1.16432 5.40534C1.13141 5.34805 0.90767 4.71789 0.881348 4.51329L193.597 0.061185C195.209 -0.0697591 196.479 -0.0779431 197.992 0.953242Z" fill="url(#paint0_linear_35_85)"/>
<path d="M144.952 34.3358C145.544 38.6406 141.51 35.3588 140.129 37.0038C101.447 37.5276 62.7924 38.6079 24.1309 39.6718C23.5321 39.4672 23.0385 37.8058 22.7161 37.4457C27.1909 36.5864 31.6855 36.6683 36.1867 36.5537C46.8079 36.2918 58.6795 35.9808 69.7942 35.6616C94.8206 34.9578 119.88 34.5732 144.952 34.3276V34.3358Z" fill="#936042"/>
<path d="M69.7943 35.678C58.6795 35.989 46.808 36.3081 36.1868 36.57C31.679 36.6764 27.191 36.6028 22.7161 37.4621C22.1502 36.8401 21.9396 36.1445 21.5842 35.678C21.7027 35.3588 23.0254 34.8105 23.1438 34.7859C29.9746 33.6647 39.2402 32.7972 46.117 32.5599C50.4997 32.4044 47.7424 33.8939 48.6703 34.7859C49.5982 35.678 66.1288 33.0345 68.5242 32.5599L69.8009 35.678H69.7943Z" fill="#AF7F62"/>
<path d="M176.151 33.8939C175.657 34.5323 175.197 37.0693 174.164 37.012C162.825 37.1266 151.467 36.8565 140.128 37.012C141.51 35.3589 145.538 38.6488 144.952 34.344C155.33 34.2376 165.767 33.542 176.151 33.9021V33.8939Z" fill="#764E38"/>
<path d="M21.5842 35.678C21.9461 36.1445 22.1567 36.8402 22.7161 37.4621C23.0451 37.8222 23.5386 39.4836 24.1309 39.6882V40.1301C23.6966 40.2365 23.3412 40.081 22.999 39.6882C22.6766 39.3199 21.8013 37.724 21.2946 37.0202C15.1812 28.3943 9.33754 19.2691 3.43467 10.2994C2.84899 9.41554 1.9606 8.57259 1.4473 7.63143C1.26304 7.2877 0.986655 6.723 0.881365 6.29744C0.795816 5.95371 0.828719 5.37264 1.16433 5.40538C7.69895 15.7336 14.4112 26.4301 21.5842 35.678Z" fill="#3F1E12"/>
<path d="M140.135 37.012C151.474 36.8565 162.832 37.1266 174.17 37.012L174.453 38.346C174.184 39.0171 173.756 38.657 173.887 39.68C136.766 40.0483 99.6902 39.0826 62.5686 40.122C62.312 40.122 62.5423 41.4478 62.2857 41.456L25.4141 41.8979C25.7958 47.373 25.7761 52.8645 25.8419 58.3641C24.9864 58.5605 25.2891 57.1774 25.2759 56.359C25.1377 49.9919 24.6508 45.8999 24.144 40.1138V39.6718C62.8055 38.6079 101.46 37.5276 140.142 37.0039L140.135 37.012Z" fill="#614230"/>
<path d="M3.43453 10.2993C3.38847 25.7835 3.06601 41.3085 3.15156 56.8172C3.20421 66.6953 3.87544 79.2905 4.00047 89.3159C4.02679 91.3619 3.07918 95.8877 3.15156 98.2201C3.25685 101.657 4.49402 108.213 4.56641 113.352C4.88228 134.303 4.11892 155.312 4.28344 176.116C4.4348 195.094 5.67196 214.49 5.69829 233.985C5.69829 237.152 4.80989 240.835 5.69829 244.002C5.40216 244.411 4.11892 247.055 3.99389 247.12C3.9215 247.161 3.79647 247.12 3.71092 247.12L4.27686 232.209C3.73066 231.742 3.60563 231.709 3.42795 232.651C2.88176 235.556 3.94125 242.021 3.28318 245.336L2.28949 234.656C2.28949 234.508 2.28949 234.361 2.28949 234.214C3.21737 234.328 3.22395 228.501 2.00653 228.428C1.94072 223.395 2.02627 218.329 2.00653 213.295L3.1384 227.765C3.59905 217.068 3.53324 206.478 3.42137 195.716C3.42137 195.381 2.85543 195.61 2.85543 195.274C2.71066 180.15 2.82911 164.993 3.1384 149.869H2.00653L2.57246 104.465L2.00653 103.572C1.76304 104.505 2.58563 108.818 1.44059 108.467C1.51297 87.6382 0.677228 66.99 1.44059 46.1453C0.190258 44.5576 1.46033 44.8604 1.44059 43.9192C1.44059 43.6655 0.59826 39.4098 0.591679 39.0252C0.466647 34.1884 1.09181 28.3123 1.15762 25.227C1.28923 19.3836 0.828584 13.4338 1.44059 7.64771C1.9473 8.59705 2.84227 9.43182 3.42795 10.3157L3.43453 10.2993Z" fill="#C7A58F"/>
<path d="M3.71748 247.12C1.46031 247.186 2.38819 237.651 2.30264 234.656L3.29632 245.336C3.95439 242.013 2.8949 235.548 3.4411 232.651C3.61877 231.71 3.74381 231.742 4.29 232.209L3.72407 247.12H3.71748Z" fill="#C1B2A8"/>
<path d="M21.3011 37.0119L24.1374 162.096C22.4132 161.654 22.9463 166.573 23.0055 168.995C23.3345 183.432 25.4996 197.885 24.9929 212.395C19.7612 222.085 11.7394 235.703 5.70489 244.002C4.8165 240.843 5.70489 237.152 5.70489 233.985C5.67857 214.49 4.43482 195.094 4.29004 176.116C4.12553 155.304 4.88889 134.303 4.57301 113.352C4.49405 108.205 3.25688 101.649 3.15817 98.2201C3.08578 95.8877 4.0334 91.3701 4.00708 89.3159C3.88204 79.2987 3.21081 66.6953 3.15817 56.8172C3.07262 41.3085 3.39507 25.7835 3.44114 10.2993C9.34401 19.269 15.1876 28.3942 21.3077 37.0037L21.3011 37.0119Z" fill="#936042"/>
<path d="M24.1375 40.1301C24.6508 45.9161 25.1378 50.0163 25.2694 56.3753C25.2891 57.1855 24.9864 58.5686 25.8353 58.3804C26.0196 73.6518 26.2236 88.9722 26.4013 104.227C26.8093 138.739 27.5397 173.267 27.8161 207.722C25.9998 208.696 26.2038 210.308 25.8287 211.061C25.5918 211.528 25.197 211.986 24.9798 212.395C25.4931 197.885 23.3215 183.432 22.9925 168.995C22.9398 166.573 22.4002 161.654 24.1243 162.096C24.9535 168.308 24.9009 159.707 25.2562 157.423C25.3681 156.711 26.0393 157.873 26.1051 157.423C26.2696 156.368 25.9867 154.6 26.1051 153.413C26.1249 153.2 26.6645 152.709 26.6711 152.521C26.6711 152.398 26.0196 152.57 26.1051 150.295C26.138 149.46 26.1051 149.608 26.1051 149.403C26.4539 119.711 24.9403 90.0525 24.6903 60.3773C24.3678 60.0336 24.3283 61.6458 23.6966 61.0484C23.0648 60.4509 23.1109 42.4052 22.9859 39.6799C23.3281 40.0728 23.6834 40.2283 24.1178 40.1219L24.1375 40.1301Z" fill="#764E38"/>
<path d="M22.9991 39.6799C23.1241 42.4052 23.0846 60.451 23.7098 61.0484C24.335 61.6458 24.381 60.0336 24.7035 60.3773C24.9535 90.0525 26.4671 119.711 26.1183 149.403C26.1183 149.599 26.1512 149.46 26.1183 150.295C26.0328 152.57 26.6908 152.398 26.6843 152.521C26.6777 152.709 26.1381 153.2 26.1183 153.413C25.9999 154.6 26.2828 156.359 26.1183 157.423C26.0525 157.873 25.3813 156.711 25.2694 157.423C24.9141 159.707 24.9601 168.308 24.1375 162.096L21.3013 37.012C21.8014 37.7158 22.6766 39.3117 23.0057 39.6799H22.9991Z" fill="#764E38"/>
<path d="M195.156 235.098C189.082 227.176 183.337 218.599 177.29 210.611L177.434 40.122L177.29 177.892L176.158 178.334L175.309 207.935C175.052 207.632 174.749 207.264 174.46 207.043L173.894 39.6719C173.762 38.6489 174.19 39.009 174.46 38.3379C176.954 32.1835 190.806 14.0232 195.163 7.1814L195.729 149.403C194.834 148.446 196.341 143.552 194.597 144.509L195.163 235.098H195.156Z" fill="url(#paint1_linear_35_85)"/>
<path d="M198.558 1.39519C197.446 3.31025 196.321 5.34806 195.156 7.18128C190.8 14.0231 176.947 32.1916 174.453 38.3378L174.17 37.0038C175.204 37.0611 175.664 34.5241 176.158 33.8857C182.159 26.0945 188.984 15.8891 194.307 6.95213C195.584 4.80792 195.999 2.50003 197.992 0.945068C198.243 1.11693 198.196 0.920516 198.558 1.387V1.39519Z" fill="#3F1E12"/>
<path d="M175.302 207.943C175.987 208.77 176.625 209.735 177.29 210.611C183.337 218.59 189.082 227.167 195.156 235.098C196.597 236.972 198.032 239.042 199.697 240.442C199.335 241.882 199.223 241.146 199.131 241.334C198.302 240.605 197.598 239.582 196.861 238.666C189.003 228.861 181.837 217.657 174.17 207.509L174.453 207.067C174.75 207.288 175.052 207.648 175.302 207.959V207.943Z" fill="#3F1E12"/>
<path d="M177.283 210.611C176.618 209.736 175.987 208.77 175.296 207.943L176.145 178.342L177.276 177.9L177.421 40.1301L177.276 210.619L177.283 210.611Z" fill="#936042"/>
<path d="M178.704 45.0242C178.652 62.1697 178.856 79.2988 178.987 96.4361C179.711 96.6162 179.876 99.3496 179.981 99.3333C180.422 99.2432 179.731 95.4704 180.409 95.1021C179.955 99.1532 181.574 105.398 179.132 107.345C178.586 86.5744 178.106 65.8116 178.704 45.0242Z" fill="#AF7F62"/>
<path d="M178.705 45.024C178.718 41.0302 178.58 36.9873 178.849 33.0017C179.33 37.0201 178.823 41.0384 178.705 45.024Z" fill="#AF7F62"/>
<path d="M176.296 175.453H176.579C177.138 175.379 177.138 175.968 176.579 175.895L176.296 175.453Z" fill="#936042"/>
<path d="M28.3885 207.943C28.2043 209.048 26.5722 210.628 26.1182 211.503L25.8352 211.061C26.2103 210.308 26.0063 208.696 27.8226 207.722C27.5462 173.268 26.8157 138.739 26.4077 104.227L26.9737 107.124L28.3885 207.951V207.943Z" fill="#614230"/>
<path d="M199.124 241.334C198.48 242.619 198.164 242.447 197.71 243.118C194.65 243.216 191.543 243.012 188.49 243.118C186.193 243.2 183.601 243.086 181.403 243.118C174.085 243.233 166.905 243.888 159.561 244.01C158.601 244.027 157.311 243.994 156.442 244.01C106.034 244.796 55.6788 244.804 5.13916 246.678C5.98807 245.336 6.84356 244.01 7.69246 242.668C10.838 243.413 14.1613 243.2 17.3332 243.11C34.7193 242.611 52.1252 242.153 69.5179 241.776C69.893 241.776 70.2747 241.776 70.6498 241.776C70.9328 241.776 71.2223 241.776 71.4987 241.776C80.6656 241.58 89.8522 241.072 99.006 240.884C130.712 240.246 164.089 242.21 195.577 239.55C196.117 239.501 196.644 239.796 196.854 238.658C197.591 239.575 198.295 240.598 199.124 241.326V241.334Z" fill="#764E38"/>
<path d="M64.9772 207.501L62.5686 208.835C69.4454 209.719 76.421 208.623 83.2714 208.835C83.5281 208.835 83.2978 210.161 83.5544 210.169C86.4828 210.259 89.7008 209.236 92.6292 209.277C92.7213 209.277 92.9187 210.611 93.1951 210.611C93.7874 210.619 94.9719 209.719 95.1825 209.719C100.802 209.785 106.337 210.21 111.634 209.719C112.266 209.662 112.667 209.605 112.628 208.385C133.39 208.492 153.389 207.788 174.17 207.493C181.837 217.65 189.003 228.853 196.861 238.65C196.65 239.787 196.123 239.493 195.584 239.542C164.102 242.202 130.725 240.237 99.0124 240.876C98.8611 239.059 102.309 239.239 103.264 239.092C106.31 239.272 109.305 239.092 112.338 238.65C113.464 238.617 114.635 238.854 115.741 238.429C114.602 237.668 113.418 238.494 112.338 238.65C109.265 238.732 106.337 238.633 103.264 239.092C101.993 239.018 100.69 239.141 99.4336 239.092C99.302 239.092 99.8218 237.889 97.4462 237.758C90.3193 237.357 80.4549 240.467 72.7753 240.876C72.2554 240.9 71.3736 240.426 71.4986 241.768C71.2156 241.768 70.9261 241.768 70.6497 241.768L70.5049 238.65L47.6765 241.097C54.9614 241.981 62.312 240.442 69.5178 241.768C52.1251 242.144 34.7192 242.603 17.333 243.102C18.5834 240.606 23.0122 243.937 23.7163 240.876H8.82422C14.477 231.996 21.1367 221.218 26.1248 211.495C26.5789 210.611 28.2043 209.04 28.3952 207.935C40.576 207.886 52.77 207.567 64.9837 207.493L64.9772 207.501Z" fill="url(#paint2_linear_35_85)"/>
<path d="M103.264 239.108C102.303 239.255 98.8545 239.075 99.0124 240.892C89.8521 241.08 80.6655 241.588 71.5052 241.784C71.3801 240.442 72.2619 240.925 72.7818 240.892C80.4615 240.483 90.3259 237.373 97.4528 237.774C99.8284 237.905 99.3085 239.108 99.4401 239.108C100.697 239.157 102 239.034 103.27 239.108H103.264Z" fill="#AF7F62"/>
<path d="M26.1183 211.503C21.1302 221.226 14.4705 232.004 8.81771 240.884C8.44261 241.473 8.06093 242.071 7.68583 242.668C6.83692 244.002 5.98143 245.328 5.13253 246.678C4.92853 247.006 4.3231 247.325 4.28362 248.012C3.88878 247.849 3.97433 247.611 4.00065 247.12C4.12568 247.055 5.40233 244.411 5.70505 244.002C11.7329 235.704 19.7614 222.085 24.993 212.395C25.2168 211.986 25.6116 211.528 25.8419 211.062L26.1249 211.503H26.1183Z" fill="#3F1E12"/>
<path d="M70.6497 241.776C70.2746 241.776 69.8929 241.776 69.5178 241.776C62.3119 240.45 54.9679 241.989 47.6765 241.105L70.5049 238.658L70.6497 241.776Z" fill="#AF7F62"/>
<path d="M17.3265 243.11C14.148 243.2 10.8314 243.413 7.68579 242.668C8.06089 242.079 8.44257 241.481 8.81767 240.884H23.7097C23.0122 243.945 18.5768 240.614 17.3265 243.11Z" fill="#AF7F62"/>
<path d="M112.621 208.394C112.661 209.613 112.259 209.67 111.628 209.728C106.33 210.219 100.802 209.793 95.1759 209.728C94.9653 209.728 93.7808 210.628 93.1885 210.62C92.9121 210.62 92.7081 209.286 92.6226 209.286C89.6876 209.245 86.4762 210.26 83.5478 210.178C83.2911 210.178 83.5215 208.852 83.2648 208.844C76.4143 208.631 69.4388 209.728 62.562 208.844L64.9705 207.51C80.9089 207.403 97.229 208.32 112.615 208.402L112.621 208.394Z" fill="#DAC5B7"/>
<path d="M112.338 238.658C109.305 239.1 106.311 239.288 103.264 239.1C106.337 238.642 109.265 238.74 112.338 238.658Z" fill="#AF7F62"/>
<path d="M112.338 238.658C113.418 238.502 114.602 237.676 115.741 238.437C114.635 238.862 113.457 238.625 112.338 238.658Z" fill="#AF7F62"/>
</g>
<defs>
<linearGradient id="paint0_linear_35_85" x1="14.2994" y1="8.24519" x2="186.527" y2="19.601" gradientUnits="userSpaceOnUse">
<stop stop-color="#AD7656"/>
<stop offset="0.5" stop-color="#C08E6F"/>
<stop offset="1" stop-color="#935837"/>
</linearGradient>
<linearGradient id="paint1_linear_35_85" x1="175.296" y1="26.2583" x2="210.536" y2="220.04" gradientUnits="userSpaceOnUse">
<stop offset="0.25" stop-color="#C18E70"/>
<stop offset="1" stop-color="#8D5333"/>
</linearGradient>
<linearGradient id="paint2_linear_35_85" x1="21.6171" y1="205.005" x2="189.076" y2="234.734" gradientUnits="userSpaceOnUse">
<stop offset="0.23" stop-color="#C29274"/>
<stop offset="1" stop-color="#996241"/>
</linearGradient>
<clipPath id="clip0_35_85">
<rect width="200" height="248" fill="white"/>
</clipPath>
</defs>
</svg>
